%TF.GenerationSoftware,KiCad,Pcbnew,10.0.0*%
%TF.CreationDate,2026-07-08T13:58:18+02:00*%
%TF.ProjectId,WheelFrontEndDevBoard_PCB,57686565-6c46-4726-9f6e-74456e644465,rev?*%
%TF.SameCoordinates,Original*%
%TF.FileFunction,Soldermask,Top*%
%TF.FilePolarity,Negative*%
%FSLAX46Y46*%
G04 Gerber Fmt 4.6, Leading zero omitted, Abs format (unit mm)*
G04 Created by KiCad (PCBNEW 10.0.0) date 2026-07-08 13:58:18*
%MOMM*%
%LPD*%
G01*
G04 APERTURE LIST*
G04 Aperture macros list*
%AMRoundRect*
0 Rectangle with rounded corners*
0 $1 Rounding radius*
0 $2 $3 $4 $5 $6 $7 $8 $9 X,Y pos of 4 corners*
0 Add a 4 corners polygon primitive as box body*
4,1,4,$2,$3,$4,$5,$6,$7,$8,$9,$2,$3,0*
0 Add four circle primitives for the rounded corners*
1,1,$1+$1,$2,$3*
1,1,$1+$1,$4,$5*
1,1,$1+$1,$6,$7*
1,1,$1+$1,$8,$9*
0 Add four rect primitives between the rounded corners*
20,1,$1+$1,$2,$3,$4,$5,0*
20,1,$1+$1,$4,$5,$6,$7,0*
20,1,$1+$1,$6,$7,$8,$9,0*
20,1,$1+$1,$8,$9,$2,$3,0*%
G04 Aperture macros list end*
%ADD10C,3.200000*%
%ADD11RoundRect,0.237500X-0.237500X0.287500X-0.237500X-0.287500X0.237500X-0.287500X0.237500X0.287500X0*%
%ADD12R,1.700000X1.700000*%
%ADD13C,1.700000*%
%ADD14C,0.650000*%
%ADD15O,2.004000X1.104000*%
%ADD16O,2.304000X1.254000*%
G04 APERTURE END LIST*
D10*
%TO.C,H3*%
X101601512Y-23034385D03*
%TD*%
%TO.C,H1*%
X19862192Y-88235594D03*
%TD*%
%TO.C,H2*%
X19854478Y-23035178D03*
%TD*%
%TO.C,H4*%
X101609451Y-88229451D03*
%TD*%
D11*
%TO.C,D1*%
X47350000Y-20835000D03*
X47350000Y-22585000D03*
%TD*%
%TO.C,D5*%
X56270000Y-20835000D03*
X56270000Y-22585000D03*
%TD*%
%TO.C,D7*%
X65190000Y-20835000D03*
X65190000Y-22585000D03*
%TD*%
%TO.C,D4*%
X51810000Y-20835000D03*
X51810000Y-22585000D03*
%TD*%
%TO.C,D3*%
X74110000Y-20835000D03*
X74110000Y-22585000D03*
%TD*%
%TO.C,D6*%
X60730000Y-20835000D03*
X60730000Y-22585000D03*
%TD*%
%TO.C,D2*%
X69650000Y-20835000D03*
X69650000Y-22585000D03*
%TD*%
D12*
%TO.C,J4*%
X50760000Y-89440000D03*
D13*
X50760000Y-86900000D03*
X48220000Y-89440000D03*
X48220000Y-86900000D03*
X45680000Y-89440000D03*
X45680000Y-86900000D03*
X43140000Y-89440000D03*
X43140000Y-86900000D03*
X40600000Y-89440000D03*
X40600000Y-86900000D03*
X38060000Y-89440000D03*
X38060000Y-86900000D03*
X35520000Y-89440000D03*
X35520000Y-86900000D03*
X32980000Y-89440000D03*
X32980000Y-86900000D03*
X30440000Y-89440000D03*
X30440000Y-86900000D03*
X27900000Y-89440000D03*
X27900000Y-86900000D03*
%TD*%
D14*
%TO.C,P1*%
X22410000Y-58600000D03*
X22410000Y-52820000D03*
D15*
X18730000Y-60030000D03*
D16*
X22910000Y-60030000D03*
D15*
X18730000Y-51390000D03*
D16*
X22910000Y-51390000D03*
%TD*%
D12*
%TO.C,J3*%
X80160000Y-89440000D03*
D13*
X80160000Y-86900000D03*
X77620000Y-89440000D03*
X77620000Y-86900000D03*
X75080000Y-89440000D03*
X75080000Y-86900000D03*
X72540000Y-89440000D03*
X72540000Y-86900000D03*
X70000000Y-89440000D03*
X70000000Y-86900000D03*
X67460000Y-89440000D03*
X67460000Y-86900000D03*
X64920000Y-89440000D03*
X64920000Y-86900000D03*
X62380000Y-89440000D03*
X62380000Y-86900000D03*
X59840000Y-89440000D03*
X59840000Y-86900000D03*
X57300000Y-89440000D03*
X57300000Y-86900000D03*
%TD*%
D12*
%TO.C,J2*%
X93560000Y-24530000D03*
D13*
X91020000Y-24530000D03*
X88480000Y-24530000D03*
X85940000Y-24530000D03*
%TD*%
D12*
%TO.C,J1*%
X19950000Y-78940000D03*
D13*
X19950000Y-76400000D03*
X19950000Y-73860000D03*
X19950000Y-71320000D03*
X19950000Y-68780000D03*
%TD*%
D12*
%TO.C,J5*%
X89250000Y-89440000D03*
D13*
X89250000Y-86900000D03*
X86710000Y-89440000D03*
X86710000Y-86900000D03*
%TD*%
M02*
