M48
; DRILL file KiCad 10.0.0 date 2026-07-08T13:58:19
; FORMAT={-:-/ absolute / metric / decimal}
; #@! TF.CreationDate,2026-07-08T13:58:19+02:00
; #@! TF.GenerationSoftware,Kicad,Pcbnew,10.0.0
; #@! TF.FileFunction,Plated,1,4,PTH
FMAT,2
METRIC
; #@! TA.AperFunction,Plated,PTH,ViaDrill
T1C0.300
; #@! TA.AperFunction,Plated,PTH,ComponentDrill
T2C0.600
; #@! TA.AperFunction,Plated,PTH,ComponentDrill
T3C1.000
%
G90
G05
T1
X17.33Y-55.27
X17.33Y-56.07
X17.33Y-56.9
X18.16Y-55.27
X18.16Y-56.07
X18.16Y-56.9
X18.88Y-47.54
X18.88Y-48.34
X18.88Y-49.17
X19.01Y-55.27
X19.01Y-56.07
X19.01Y-56.9
X19.71Y-47.54
X19.71Y-48.34
X19.71Y-49.17
X20.56Y-47.54
X20.56Y-48.34
X20.56Y-49.17
X21.24Y-54.99
X21.24Y-55.79
X21.24Y-56.62
X28.625Y-64.545
X31.25Y-61.8
X32.622Y-61.314
X33.492Y-61.314
X33.52Y-69.68
X33.74Y-72.11
X34.342Y-61.314
X34.76Y-54.35
X34.94Y-60.65
X35.67Y-68.74
X35.7Y-44.56
X35.7Y-45.36
X35.7Y-46.19
X36.15Y-71.46
X36.31Y-69.56
X36.53Y-44.56
X36.53Y-45.36
X36.53Y-46.19
X37.0Y-52.62
X37.36Y-32.11
X37.36Y-32.91
X37.36Y-33.74
X37.38Y-44.56
X37.38Y-45.36
X37.38Y-46.19
X38.164Y-56.884
X38.19Y-32.11
X38.19Y-32.91
X38.19Y-33.74
X38.54Y-74.32
X38.97Y-56.27
X39.04Y-32.11
X39.04Y-32.91
X39.04Y-33.74
X39.31Y-60.899
X39.48Y-69.7
X39.825Y-58.555
X39.84Y-59.52
X40.2Y-42.9
X40.31Y-66.04
X40.727Y-61.237
X40.88Y-62.213
X41.19Y-39.14
X41.19Y-39.94
X41.19Y-40.77
X41.395Y-62.825
X41.98Y-66.56
X42.02Y-39.14
X42.02Y-39.94
X42.02Y-40.77
X42.365Y-63.985
X42.85Y-27.62
X42.85Y-28.3
X42.85Y-28.98
X42.87Y-39.14
X42.87Y-39.94
X42.87Y-40.77
X43.67Y-27.61
X43.67Y-28.29
X43.67Y-28.97
X44.5Y-27.6
X44.5Y-28.28
X44.5Y-28.96
X44.78Y-65.03
X45.52Y-50.81
X46.315Y-50.723
X46.54Y-60.35
X46.71Y-56.37
X46.74Y-69.76
X47.09Y-50.29
X47.09Y-55.32
X47.35Y-23.85
X47.54Y-54.31
X47.745Y-58.195
X48.13Y-74.65
X48.32Y-75.69
X48.69Y-50.47
X48.7Y-23.06
X48.7Y-23.86
X48.7Y-24.69
X48.79Y-34.19
X48.98Y-54.34
X49.0Y-29.47
X49.16Y-34.75
X49.164Y-51.44
X49.51Y-34.17
X49.53Y-23.06
X49.53Y-23.86
X49.53Y-24.69
X49.94Y-29.53
X49.98Y-41.35
X50.14Y-77.16
X50.35Y-74.59
X50.35Y-75.39
X50.35Y-76.22
X50.36Y-43.32
X50.36Y-44.12
X50.36Y-44.95
X50.38Y-23.06
X50.38Y-23.86
X50.38Y-24.69
X50.74Y-78.05
X51.18Y-74.59
X51.18Y-75.39
X51.18Y-76.22
X51.19Y-43.32
X51.19Y-44.12
X51.19Y-44.95
X51.44Y-49.65
X51.81Y-23.97
X51.91Y-81.94
X52.03Y-74.59
X52.03Y-75.39
X52.03Y-76.22
X52.04Y-43.32
X52.04Y-44.12
X52.04Y-44.95
X52.552Y-53.762
X53.15Y-23.01
X53.15Y-23.81
X53.15Y-24.64
X53.24Y-54.407
X53.39Y-55.2
X53.45Y-59.2
X53.6Y-53.16
X53.7Y-76.12
X53.74Y-65.976
X53.89Y-65.07
X53.98Y-23.01
X53.98Y-23.81
X53.98Y-24.64
X54.29Y-67.05
X54.83Y-23.01
X54.83Y-23.81
X54.83Y-24.64
X54.97Y-79.63
X55.79Y-67.04
X56.27Y-23.92
X56.32Y-79.74
X56.62Y-78.79
X56.82Y-33.36
X56.82Y-34.04
X56.82Y-34.72
X57.64Y-33.35
X57.64Y-34.03
X57.64Y-34.71
X57.7Y-22.95
X57.7Y-23.75
X57.7Y-24.58
X57.734Y-64.976
X57.78Y-79.86
X57.88Y-62.09
X57.97Y-56.04
X58.0Y-61.01
X58.22Y-55.07
X58.47Y-33.34
X58.47Y-34.02
X58.47Y-34.7
X58.53Y-22.95
X58.53Y-23.75
X58.53Y-24.58
X59.38Y-22.95
X59.38Y-23.75
X59.38Y-24.58
X59.62Y-72.17
X59.62Y-72.97
X59.62Y-73.8
X59.7Y-78.17
X60.45Y-72.17
X60.45Y-72.97
X60.45Y-73.8
X60.5Y-62.44
X60.73Y-23.87
X60.78Y-63.96
X61.02Y-79.29
X61.3Y-72.17
X61.3Y-72.97
X61.3Y-73.8
X61.61Y-65.43
X61.97Y-63.926
X62.11Y-23.03
X62.11Y-23.83
X62.11Y-24.66
X62.35Y-60.946
X62.64Y-42.57
X62.67Y-44.05
X62.67Y-45.54
X62.73Y-47.21
X62.81Y-65.31
X62.94Y-23.03
X62.94Y-23.83
X62.94Y-24.66
X63.43Y-49.52
X63.79Y-23.03
X63.79Y-23.83
X63.79Y-24.66
X63.92Y-60.38
X64.865Y-60.425
X65.08Y-79.8
X65.08Y-84.11
X65.19Y-23.79
X65.5Y-67.32
X66.26Y-77.11
X66.39Y-60.15
X66.45Y-79.74
X66.51Y-22.97
X66.51Y-23.77
X66.51Y-24.6
X66.87Y-46.9
X66.92Y-64.64
X66.94Y-65.66
X67.34Y-22.97
X67.34Y-23.77
X67.34Y-24.6
X67.39Y-62.546
X67.45Y-46.46
X67.47Y-45.81
X67.68Y-64.25
X68.0Y-79.8
X68.0Y-84.1
X68.19Y-22.97
X68.19Y-23.77
X68.19Y-24.6
X69.42Y-79.75
X69.65Y-23.95
X70.59Y-59.61
X70.71Y-63.89
X70.75Y-45.16
X70.76Y-66.95
X70.92Y-79.8
X70.92Y-84.09
X70.96Y-23.04
X70.96Y-23.84
X70.96Y-24.67
X71.79Y-23.04
X71.79Y-23.84
X71.79Y-24.67
X72.01Y-79.84
X72.64Y-23.04
X72.64Y-23.84
X72.64Y-24.67
X73.05Y-79.8
X73.84Y-84.08
X74.11Y-23.86
X74.87Y-79.37
X76.08Y-79.8
X76.76Y-84.04
X78.01Y-79.37
X79.68Y-79.8
X79.68Y-84.03
X81.08Y-79.49
X82.6Y-79.8
X82.6Y-83.98
X85.68Y-79.44
X86.48Y-79.44
X87.31Y-79.44
X88.69Y-79.68
X90.42Y-38.4
X91.72Y-26.79
X92.4Y-26.29
X92.52Y-27.01
X94.57Y-36.7
X95.41Y-38.07
X95.41Y-38.87
X95.41Y-39.7
X96.24Y-38.07
X96.24Y-38.87
X96.24Y-39.7
X97.09Y-38.07
X97.09Y-38.87
X97.09Y-39.7
T3
X19.95Y-68.78
X19.95Y-71.32
X19.95Y-73.86
X19.95Y-76.4
X19.95Y-78.94
X27.9Y-86.9
X27.9Y-89.44
X30.44Y-86.9
X30.44Y-89.44
X32.98Y-86.9
X32.98Y-89.44
X35.52Y-86.9
X35.52Y-89.44
X38.06Y-86.9
X38.06Y-89.44
X40.6Y-86.9
X40.6Y-89.44
X43.14Y-86.9
X43.14Y-89.44
X45.68Y-86.9
X45.68Y-89.44
X48.22Y-86.9
X48.22Y-89.44
X50.76Y-86.9
X50.76Y-89.44
X57.3Y-86.9
X57.3Y-89.44
X59.84Y-86.9
X59.84Y-89.44
X62.38Y-86.9
X62.38Y-89.44
X64.92Y-86.9
X64.92Y-89.44
X67.46Y-86.9
X67.46Y-89.44
X70.0Y-86.9
X70.0Y-89.44
X72.54Y-86.9
X72.54Y-89.44
X75.08Y-86.9
X75.08Y-89.44
X77.62Y-86.9
X77.62Y-89.44
X80.16Y-86.9
X80.16Y-89.44
X85.94Y-24.53
X86.71Y-86.9
X86.71Y-89.44
X88.48Y-24.53
X89.25Y-86.9
X89.25Y-89.44
X91.02Y-24.53
X93.56Y-24.53
T2
G00X18.33Y-51.39
M15
G01X19.13Y-51.39
M16
G05
G00X18.33Y-60.03
M15
G01X19.13Y-60.03
M16
G05
G00X22.36Y-51.39
M15
G01X23.46Y-51.39
M16
G05
G00X22.36Y-60.03
M15
G01X23.46Y-60.03
M16
G05
M30
