%TF.GenerationSoftware,KiCad,Pcbnew,10.0.0*%
%TF.CreationDate,2026-07-08T13:58:18+02:00*%
%TF.ProjectId,WheelFrontEndDevBoard_PCB,57686565-6c46-4726-9f6e-74456e644465,rev?*%
%TF.SameCoordinates,Original*%
%TF.FileFunction,Legend,Top*%
%TF.FilePolarity,Positive*%
%FSLAX46Y46*%
G04 Gerber Fmt 4.6, Leading zero omitted, Abs format (unit mm)*
G04 Created by KiCad (PCBNEW 10.0.0) date 2026-07-08 13:58:18*
%MOMM*%
%LPD*%
G01*
G04 APERTURE LIST*
%ADD10C,0.100000*%
%ADD11C,0.300000*%
%ADD12C,0.150000*%
%ADD13C,0.200000*%
%ADD14C,0.120000*%
G04 APERTURE END LIST*
D10*
X46733968Y-25382248D02*
X56733968Y-25382248D01*
X56733968Y-25382248D02*
X55505240Y-24521883D01*
X56733968Y-25382248D02*
X55505241Y-26242612D01*
X64733968Y-25382248D02*
X65962695Y-24521884D01*
X64733968Y-25382248D02*
X65962696Y-26242613D01*
X74733968Y-25382248D02*
X64733968Y-25382248D01*
D11*
X59591110Y-26060576D02*
X59091110Y-25346290D01*
X58733967Y-26060576D02*
X58733967Y-24560576D01*
X58733967Y-24560576D02*
X59305396Y-24560576D01*
X59305396Y-24560576D02*
X59448253Y-24632005D01*
X59448253Y-24632005D02*
X59519682Y-24703433D01*
X59519682Y-24703433D02*
X59591110Y-24846290D01*
X59591110Y-24846290D02*
X59591110Y-25060576D01*
X59591110Y-25060576D02*
X59519682Y-25203433D01*
X59519682Y-25203433D02*
X59448253Y-25274862D01*
X59448253Y-25274862D02*
X59305396Y-25346290D01*
X59305396Y-25346290D02*
X58733967Y-25346290D01*
X60233967Y-26060576D02*
X60233967Y-24560576D01*
X60233967Y-24560576D02*
X60805396Y-24560576D01*
X60805396Y-24560576D02*
X60948253Y-24632005D01*
X60948253Y-24632005D02*
X61019682Y-24703433D01*
X61019682Y-24703433D02*
X61091110Y-24846290D01*
X61091110Y-24846290D02*
X61091110Y-25060576D01*
X61091110Y-25060576D02*
X61019682Y-25203433D01*
X61019682Y-25203433D02*
X60948253Y-25274862D01*
X60948253Y-25274862D02*
X60805396Y-25346290D01*
X60805396Y-25346290D02*
X60233967Y-25346290D01*
X61733967Y-26060576D02*
X61733967Y-24560576D01*
X61733967Y-24560576D02*
X62233967Y-25632005D01*
X62233967Y-25632005D02*
X62733967Y-24560576D01*
X62733967Y-24560576D02*
X62733967Y-26060576D01*
D12*
X46374819Y-22458094D02*
X45374819Y-22458094D01*
X45374819Y-22458094D02*
X45374819Y-22219999D01*
X45374819Y-22219999D02*
X45422438Y-22077142D01*
X45422438Y-22077142D02*
X45517676Y-21981904D01*
X45517676Y-21981904D02*
X45612914Y-21934285D01*
X45612914Y-21934285D02*
X45803390Y-21886666D01*
X45803390Y-21886666D02*
X45946247Y-21886666D01*
X45946247Y-21886666D02*
X46136723Y-21934285D01*
X46136723Y-21934285D02*
X46231961Y-21981904D01*
X46231961Y-21981904D02*
X46327200Y-22077142D01*
X46327200Y-22077142D02*
X46374819Y-22219999D01*
X46374819Y-22219999D02*
X46374819Y-22458094D01*
X46374819Y-20934285D02*
X46374819Y-21505713D01*
X46374819Y-21219999D02*
X45374819Y-21219999D01*
X45374819Y-21219999D02*
X45517676Y-21315237D01*
X45517676Y-21315237D02*
X45612914Y-21410475D01*
X45612914Y-21410475D02*
X45660533Y-21505713D01*
D13*
X35312219Y-53741904D02*
X36121742Y-53741904D01*
X36121742Y-53741904D02*
X36216980Y-53694285D01*
X36216980Y-53694285D02*
X36264600Y-53646666D01*
X36264600Y-53646666D02*
X36312219Y-53551428D01*
X36312219Y-53551428D02*
X36312219Y-53360952D01*
X36312219Y-53360952D02*
X36264600Y-53265714D01*
X36264600Y-53265714D02*
X36216980Y-53218095D01*
X36216980Y-53218095D02*
X36121742Y-53170476D01*
X36121742Y-53170476D02*
X35312219Y-53170476D01*
X36312219Y-52170476D02*
X36312219Y-52741904D01*
X36312219Y-52456190D02*
X35312219Y-52456190D01*
X35312219Y-52456190D02*
X35455076Y-52551428D01*
X35455076Y-52551428D02*
X35550314Y-52646666D01*
X35550314Y-52646666D02*
X35597933Y-52741904D01*
D12*
X55294819Y-22458094D02*
X54294819Y-22458094D01*
X54294819Y-22458094D02*
X54294819Y-22219999D01*
X54294819Y-22219999D02*
X54342438Y-22077142D01*
X54342438Y-22077142D02*
X54437676Y-21981904D01*
X54437676Y-21981904D02*
X54532914Y-21934285D01*
X54532914Y-21934285D02*
X54723390Y-21886666D01*
X54723390Y-21886666D02*
X54866247Y-21886666D01*
X54866247Y-21886666D02*
X55056723Y-21934285D01*
X55056723Y-21934285D02*
X55151961Y-21981904D01*
X55151961Y-21981904D02*
X55247200Y-22077142D01*
X55247200Y-22077142D02*
X55294819Y-22219999D01*
X55294819Y-22219999D02*
X55294819Y-22458094D01*
X54294819Y-20981904D02*
X54294819Y-21458094D01*
X54294819Y-21458094D02*
X54771009Y-21505713D01*
X54771009Y-21505713D02*
X54723390Y-21458094D01*
X54723390Y-21458094D02*
X54675771Y-21362856D01*
X54675771Y-21362856D02*
X54675771Y-21124761D01*
X54675771Y-21124761D02*
X54723390Y-21029523D01*
X54723390Y-21029523D02*
X54771009Y-20981904D01*
X54771009Y-20981904D02*
X54866247Y-20934285D01*
X54866247Y-20934285D02*
X55104342Y-20934285D01*
X55104342Y-20934285D02*
X55199580Y-20981904D01*
X55199580Y-20981904D02*
X55247200Y-21029523D01*
X55247200Y-21029523D02*
X55294819Y-21124761D01*
X55294819Y-21124761D02*
X55294819Y-21362856D01*
X55294819Y-21362856D02*
X55247200Y-21458094D01*
X55247200Y-21458094D02*
X55199580Y-21505713D01*
X64214819Y-22458094D02*
X63214819Y-22458094D01*
X63214819Y-22458094D02*
X63214819Y-22219999D01*
X63214819Y-22219999D02*
X63262438Y-22077142D01*
X63262438Y-22077142D02*
X63357676Y-21981904D01*
X63357676Y-21981904D02*
X63452914Y-21934285D01*
X63452914Y-21934285D02*
X63643390Y-21886666D01*
X63643390Y-21886666D02*
X63786247Y-21886666D01*
X63786247Y-21886666D02*
X63976723Y-21934285D01*
X63976723Y-21934285D02*
X64071961Y-21981904D01*
X64071961Y-21981904D02*
X64167200Y-22077142D01*
X64167200Y-22077142D02*
X64214819Y-22219999D01*
X64214819Y-22219999D02*
X64214819Y-22458094D01*
X63214819Y-21553332D02*
X63214819Y-20886666D01*
X63214819Y-20886666D02*
X64214819Y-21315237D01*
X50834819Y-22458094D02*
X49834819Y-22458094D01*
X49834819Y-22458094D02*
X49834819Y-22219999D01*
X49834819Y-22219999D02*
X49882438Y-22077142D01*
X49882438Y-22077142D02*
X49977676Y-21981904D01*
X49977676Y-21981904D02*
X50072914Y-21934285D01*
X50072914Y-21934285D02*
X50263390Y-21886666D01*
X50263390Y-21886666D02*
X50406247Y-21886666D01*
X50406247Y-21886666D02*
X50596723Y-21934285D01*
X50596723Y-21934285D02*
X50691961Y-21981904D01*
X50691961Y-21981904D02*
X50787200Y-22077142D01*
X50787200Y-22077142D02*
X50834819Y-22219999D01*
X50834819Y-22219999D02*
X50834819Y-22458094D01*
X50168152Y-21029523D02*
X50834819Y-21029523D01*
X49787200Y-21267618D02*
X50501485Y-21505713D01*
X50501485Y-21505713D02*
X50501485Y-20886666D01*
X73134819Y-22458094D02*
X72134819Y-22458094D01*
X72134819Y-22458094D02*
X72134819Y-22219999D01*
X72134819Y-22219999D02*
X72182438Y-22077142D01*
X72182438Y-22077142D02*
X72277676Y-21981904D01*
X72277676Y-21981904D02*
X72372914Y-21934285D01*
X72372914Y-21934285D02*
X72563390Y-21886666D01*
X72563390Y-21886666D02*
X72706247Y-21886666D01*
X72706247Y-21886666D02*
X72896723Y-21934285D01*
X72896723Y-21934285D02*
X72991961Y-21981904D01*
X72991961Y-21981904D02*
X73087200Y-22077142D01*
X73087200Y-22077142D02*
X73134819Y-22219999D01*
X73134819Y-22219999D02*
X73134819Y-22458094D01*
X72134819Y-21553332D02*
X72134819Y-20934285D01*
X72134819Y-20934285D02*
X72515771Y-21267618D01*
X72515771Y-21267618D02*
X72515771Y-21124761D01*
X72515771Y-21124761D02*
X72563390Y-21029523D01*
X72563390Y-21029523D02*
X72611009Y-20981904D01*
X72611009Y-20981904D02*
X72706247Y-20934285D01*
X72706247Y-20934285D02*
X72944342Y-20934285D01*
X72944342Y-20934285D02*
X73039580Y-20981904D01*
X73039580Y-20981904D02*
X73087200Y-21029523D01*
X73087200Y-21029523D02*
X73134819Y-21124761D01*
X73134819Y-21124761D02*
X73134819Y-21410475D01*
X73134819Y-21410475D02*
X73087200Y-21505713D01*
X73087200Y-21505713D02*
X73039580Y-21553332D01*
X59754819Y-22458094D02*
X58754819Y-22458094D01*
X58754819Y-22458094D02*
X58754819Y-22219999D01*
X58754819Y-22219999D02*
X58802438Y-22077142D01*
X58802438Y-22077142D02*
X58897676Y-21981904D01*
X58897676Y-21981904D02*
X58992914Y-21934285D01*
X58992914Y-21934285D02*
X59183390Y-21886666D01*
X59183390Y-21886666D02*
X59326247Y-21886666D01*
X59326247Y-21886666D02*
X59516723Y-21934285D01*
X59516723Y-21934285D02*
X59611961Y-21981904D01*
X59611961Y-21981904D02*
X59707200Y-22077142D01*
X59707200Y-22077142D02*
X59754819Y-22219999D01*
X59754819Y-22219999D02*
X59754819Y-22458094D01*
X58754819Y-21029523D02*
X58754819Y-21219999D01*
X58754819Y-21219999D02*
X58802438Y-21315237D01*
X58802438Y-21315237D02*
X58850057Y-21362856D01*
X58850057Y-21362856D02*
X58992914Y-21458094D01*
X58992914Y-21458094D02*
X59183390Y-21505713D01*
X59183390Y-21505713D02*
X59564342Y-21505713D01*
X59564342Y-21505713D02*
X59659580Y-21458094D01*
X59659580Y-21458094D02*
X59707200Y-21410475D01*
X59707200Y-21410475D02*
X59754819Y-21315237D01*
X59754819Y-21315237D02*
X59754819Y-21124761D01*
X59754819Y-21124761D02*
X59707200Y-21029523D01*
X59707200Y-21029523D02*
X59659580Y-20981904D01*
X59659580Y-20981904D02*
X59564342Y-20934285D01*
X59564342Y-20934285D02*
X59326247Y-20934285D01*
X59326247Y-20934285D02*
X59231009Y-20981904D01*
X59231009Y-20981904D02*
X59183390Y-21029523D01*
X59183390Y-21029523D02*
X59135771Y-21124761D01*
X59135771Y-21124761D02*
X59135771Y-21315237D01*
X59135771Y-21315237D02*
X59183390Y-21410475D01*
X59183390Y-21410475D02*
X59231009Y-21458094D01*
X59231009Y-21458094D02*
X59326247Y-21505713D01*
X68674819Y-22458094D02*
X67674819Y-22458094D01*
X67674819Y-22458094D02*
X67674819Y-22219999D01*
X67674819Y-22219999D02*
X67722438Y-22077142D01*
X67722438Y-22077142D02*
X67817676Y-21981904D01*
X67817676Y-21981904D02*
X67912914Y-21934285D01*
X67912914Y-21934285D02*
X68103390Y-21886666D01*
X68103390Y-21886666D02*
X68246247Y-21886666D01*
X68246247Y-21886666D02*
X68436723Y-21934285D01*
X68436723Y-21934285D02*
X68531961Y-21981904D01*
X68531961Y-21981904D02*
X68627200Y-22077142D01*
X68627200Y-22077142D02*
X68674819Y-22219999D01*
X68674819Y-22219999D02*
X68674819Y-22458094D01*
X67770057Y-21505713D02*
X67722438Y-21458094D01*
X67722438Y-21458094D02*
X67674819Y-21362856D01*
X67674819Y-21362856D02*
X67674819Y-21124761D01*
X67674819Y-21124761D02*
X67722438Y-21029523D01*
X67722438Y-21029523D02*
X67770057Y-20981904D01*
X67770057Y-20981904D02*
X67865295Y-20934285D01*
X67865295Y-20934285D02*
X67960533Y-20934285D01*
X67960533Y-20934285D02*
X68103390Y-20981904D01*
X68103390Y-20981904D02*
X68674819Y-21553332D01*
X68674819Y-21553332D02*
X68674819Y-20934285D01*
%TO.C,D1*%
D14*
X46615000Y-20050000D02*
X46615000Y-22510000D01*
X48085000Y-20050000D02*
X46615000Y-20050000D01*
X48085000Y-22510000D02*
X48085000Y-20050000D01*
%TO.C,U1*%
D10*
X26130000Y-30710000D02*
X26130000Y-80710000D01*
X95330000Y-30710000D02*
X26130000Y-30710000D01*
X95330000Y-30710000D02*
X95330000Y-61281000D01*
X95330000Y-77281000D02*
X95330000Y-80710000D01*
X95330000Y-80710000D02*
X26130000Y-80710000D01*
%TO.C,D5*%
D14*
X55535000Y-20050000D02*
X55535000Y-22510000D01*
X57005000Y-20050000D02*
X55535000Y-20050000D01*
X57005000Y-22510000D02*
X57005000Y-20050000D01*
%TO.C,D7*%
X64455000Y-20050000D02*
X64455000Y-22510000D01*
X65925000Y-20050000D02*
X64455000Y-20050000D01*
X65925000Y-22510000D02*
X65925000Y-20050000D01*
%TO.C,D4*%
X51075000Y-20050000D02*
X51075000Y-22510000D01*
X52545000Y-20050000D02*
X51075000Y-20050000D01*
X52545000Y-22510000D02*
X52545000Y-20050000D01*
%TO.C,D3*%
X73375000Y-20050000D02*
X73375000Y-22510000D01*
X74845000Y-20050000D02*
X73375000Y-20050000D01*
X74845000Y-22510000D02*
X74845000Y-20050000D01*
%TO.C,D6*%
X59995000Y-20050000D02*
X59995000Y-22510000D01*
X61465000Y-20050000D02*
X59995000Y-20050000D01*
X61465000Y-22510000D02*
X61465000Y-20050000D01*
%TO.C,D2*%
X68915000Y-20050000D02*
X68915000Y-22510000D01*
X70385000Y-20050000D02*
X68915000Y-20050000D01*
X70385000Y-22510000D02*
X70385000Y-20050000D01*
%TD*%
M02*
