%TF.GenerationSoftware,KiCad,Pcbnew,10.0.0*%
%TF.CreationDate,2026-07-08T13:58:18+02:00*%
%TF.ProjectId,WheelFrontEndDevBoard_PCB,57686565-6c46-4726-9f6e-74456e644465,rev?*%
%TF.SameCoordinates,Original*%
%TF.FileFunction,Paste,Bot*%
%TF.FilePolarity,Positive*%
%FSLAX46Y46*%
G04 Gerber Fmt 4.6, Leading zero omitted, Abs format (unit mm)*
G04 Created by KiCad (PCBNEW 10.0.0) date 2026-07-08 13:58:18*
%MOMM*%
%LPD*%
G01*
G04 APERTURE LIST*
G04 Aperture macros list*
%AMRoundRect*
0 Rectangle with rounded corners*
0 $1 Rounding radius*
0 $2 $3 $4 $5 $6 $7 $8 $9 X,Y pos of 4 corners*
0 Add a 4 corners polygon primitive as box body*
4,1,4,$2,$3,$4,$5,$6,$7,$8,$9,$2,$3,0*
0 Add four circle primitives for the rounded corners*
1,1,$1+$1,$2,$3*
1,1,$1+$1,$4,$5*
1,1,$1+$1,$6,$7*
1,1,$1+$1,$8,$9*
0 Add four rect primitives between the rounded corners*
20,1,$1+$1,$2,$3,$4,$5,0*
20,1,$1+$1,$4,$5,$6,$7,0*
20,1,$1+$1,$6,$7,$8,$9,0*
20,1,$1+$1,$8,$9,$2,$3,0*%
G04 Aperture macros list end*
%ADD10C,0.010000*%
%ADD11R,1.200000X0.300000*%
%ADD12RoundRect,0.075000X0.725000X0.075000X-0.725000X0.075000X-0.725000X-0.075000X0.725000X-0.075000X0*%
%ADD13RoundRect,0.075000X0.075000X0.725000X-0.075000X0.725000X-0.075000X-0.725000X0.075000X-0.725000X0*%
%ADD14RoundRect,0.237500X0.237500X-0.300000X0.237500X0.300000X-0.237500X0.300000X-0.237500X-0.300000X0*%
%ADD15RoundRect,0.237500X0.300000X0.237500X-0.300000X0.237500X-0.300000X-0.237500X0.300000X-0.237500X0*%
%ADD16RoundRect,0.237500X0.237500X-0.250000X0.237500X0.250000X-0.237500X0.250000X-0.237500X-0.250000X0*%
%ADD17RoundRect,0.237500X0.250000X0.237500X-0.250000X0.237500X-0.250000X-0.237500X0.250000X-0.237500X0*%
%ADD18R,1.140000X0.600000*%
%ADD19R,1.140000X0.300000*%
%ADD20RoundRect,0.237500X-0.237500X0.300000X-0.237500X-0.300000X0.237500X-0.300000X0.237500X0.300000X0*%
%ADD21RoundRect,0.237500X-0.300000X-0.237500X0.300000X-0.237500X0.300000X0.237500X-0.300000X0.237500X0*%
%ADD22RoundRect,0.237500X-0.250000X-0.237500X0.250000X-0.237500X0.250000X0.237500X-0.250000X0.237500X0*%
%ADD23RoundRect,0.150000X0.825000X0.150000X-0.825000X0.150000X-0.825000X-0.150000X0.825000X-0.150000X0*%
%ADD24RoundRect,0.100000X0.100000X-0.680000X0.100000X0.680000X-0.100000X0.680000X-0.100000X-0.680000X0*%
%ADD25RoundRect,0.250000X-0.550000X1.500000X-0.550000X-1.500000X0.550000X-1.500000X0.550000X1.500000X0*%
%ADD26RoundRect,0.250000X0.550000X-1.500000X0.550000X1.500000X-0.550000X1.500000X-0.550000X-1.500000X0*%
%ADD27RoundRect,0.237500X-0.237500X0.250000X-0.237500X-0.250000X0.237500X-0.250000X0.237500X0.250000X0*%
%ADD28RoundRect,0.250000X1.500000X0.550000X-1.500000X0.550000X-1.500000X-0.550000X1.500000X-0.550000X0*%
%ADD29RoundRect,0.375000X0.375000X-0.625000X0.375000X0.625000X-0.375000X0.625000X-0.375000X-0.625000X0*%
%ADD30RoundRect,0.500000X1.400000X-0.500000X1.400000X0.500000X-1.400000X0.500000X-1.400000X-0.500000X0*%
%ADD31R,0.900000X1.000000*%
%ADD32RoundRect,0.112500X0.112500X-0.350000X0.112500X0.350000X-0.112500X0.350000X-0.112500X-0.350000X0*%
%ADD33R,1.200000X1.400000*%
G04 APERTURE END LIST*
D10*
%TO.C,U1*%
X72968000Y-42146000D02*
X70568000Y-42146000D01*
X70568000Y-40546000D01*
X71368000Y-40546000D01*
X71368000Y-39746000D01*
X72968000Y-39746000D01*
X72968000Y-42146000D01*
G36*
X72968000Y-42146000D02*
G01*
X70568000Y-42146000D01*
X70568000Y-40546000D01*
X71368000Y-40546000D01*
X71368000Y-39746000D01*
X72968000Y-39746000D01*
X72968000Y-42146000D01*
G37*
X72968000Y-70846000D02*
X71368000Y-70846000D01*
X71368000Y-70046000D01*
X70568000Y-70046000D01*
X70568000Y-68446000D01*
X72968000Y-68446000D01*
X72968000Y-70846000D01*
G36*
X72968000Y-70846000D02*
G01*
X71368000Y-70846000D01*
X71368000Y-70046000D01*
X70568000Y-70046000D01*
X70568000Y-68446000D01*
X72968000Y-68446000D01*
X72968000Y-70846000D01*
G37*
%TD*%
D11*
%TO.C,U1*%
X69068000Y-43046000D03*
X69068000Y-43546000D03*
X69068000Y-44046000D03*
X69068000Y-44546000D03*
X69068000Y-45046000D03*
X69068000Y-45546000D03*
X69068000Y-46046000D03*
X69068000Y-46546000D03*
X69068000Y-47046000D03*
X69068000Y-47546000D03*
X69068000Y-48046000D03*
X69068000Y-48546000D03*
X69068000Y-49046000D03*
X69068000Y-49546000D03*
X69068000Y-50046000D03*
X69068000Y-50546000D03*
X69068000Y-51046000D03*
X69068000Y-51546000D03*
X69068000Y-52046000D03*
X69068000Y-52546000D03*
X69068000Y-53046000D03*
X69068000Y-53546000D03*
X69068000Y-54046000D03*
X69068000Y-54546000D03*
X69068000Y-55046000D03*
X69068000Y-55546000D03*
X69068000Y-56046000D03*
X69068000Y-56546000D03*
X69068000Y-57046000D03*
X69068000Y-57546000D03*
X69068000Y-58046000D03*
X69068000Y-58546000D03*
X69068000Y-59046000D03*
X69068000Y-59546000D03*
X69068000Y-60046000D03*
X69068000Y-60546000D03*
X69068000Y-61046000D03*
X69068000Y-61546000D03*
X69068000Y-62046000D03*
X69068000Y-62546000D03*
X69068000Y-63046000D03*
X69068000Y-63546000D03*
X69068000Y-64046000D03*
X69068000Y-64546000D03*
X69068000Y-65046000D03*
X69068000Y-65546000D03*
X69068000Y-66046000D03*
X69068000Y-66546000D03*
X69068000Y-67046000D03*
X69068000Y-67546000D03*
%TD*%
D12*
%TO.C,U2*%
X51838563Y-54475819D03*
X51838563Y-54975819D03*
X51838563Y-55475819D03*
X51838563Y-55975819D03*
X51838563Y-56475819D03*
X51838563Y-56975819D03*
X51838563Y-57475819D03*
X51838563Y-57975819D03*
X51838563Y-58475819D03*
X51838563Y-58975819D03*
X51838563Y-59475819D03*
X51838563Y-59975819D03*
X51838563Y-60475819D03*
X51838563Y-60975819D03*
X51838563Y-61475819D03*
X51838563Y-61975819D03*
X51838563Y-62475819D03*
X51838563Y-62975819D03*
X51838563Y-63475819D03*
X51838563Y-63975819D03*
X51838563Y-64475819D03*
X51838563Y-64975819D03*
X51838563Y-65475819D03*
X51838563Y-65975819D03*
X51838563Y-66475819D03*
D13*
X50163563Y-68150819D03*
X49663563Y-68150819D03*
X49163563Y-68150819D03*
X48663563Y-68150819D03*
X48163563Y-68150819D03*
X47663563Y-68150819D03*
X47163563Y-68150819D03*
X46663563Y-68150819D03*
X46163563Y-68150819D03*
X45663563Y-68150819D03*
X45163563Y-68150819D03*
X44663563Y-68150819D03*
X44163563Y-68150819D03*
X43663563Y-68150819D03*
X43163563Y-68150819D03*
X42663563Y-68150819D03*
X42163563Y-68150819D03*
X41663563Y-68150819D03*
X41163563Y-68150819D03*
X40663563Y-68150819D03*
X40163563Y-68150819D03*
X39663563Y-68150819D03*
X39163563Y-68150819D03*
X38663563Y-68150819D03*
X38163563Y-68150819D03*
D12*
X36488563Y-66475819D03*
X36488563Y-65975819D03*
X36488563Y-65475819D03*
X36488563Y-64975819D03*
X36488563Y-64475819D03*
X36488563Y-63975819D03*
X36488563Y-63475819D03*
X36488563Y-62975819D03*
X36488563Y-62475819D03*
X36488563Y-61975819D03*
X36488563Y-61475819D03*
X36488563Y-60975819D03*
X36488563Y-60475819D03*
X36488563Y-59975819D03*
X36488563Y-59475819D03*
X36488563Y-58975819D03*
X36488563Y-58475819D03*
X36488563Y-57975819D03*
X36488563Y-57475819D03*
X36488563Y-56975819D03*
X36488563Y-56475819D03*
X36488563Y-55975819D03*
X36488563Y-55475819D03*
X36488563Y-54975819D03*
X36488563Y-54475819D03*
D13*
X38163563Y-52800819D03*
X38663563Y-52800819D03*
X39163563Y-52800819D03*
X39663563Y-52800819D03*
X40163563Y-52800819D03*
X40663563Y-52800819D03*
X41163563Y-52800819D03*
X41663563Y-52800819D03*
X42163563Y-52800819D03*
X42663563Y-52800819D03*
X43163563Y-52800819D03*
X43663563Y-52800819D03*
X44163563Y-52800819D03*
X44663563Y-52800819D03*
X45163563Y-52800819D03*
X45663563Y-52800819D03*
X46163563Y-52800819D03*
X46663563Y-52800819D03*
X47163563Y-52800819D03*
X47663563Y-52800819D03*
X48163563Y-52800819D03*
X48663563Y-52800819D03*
X49163563Y-52800819D03*
X49663563Y-52800819D03*
X50163563Y-52800819D03*
%TD*%
D14*
%TO.C,C24*%
X93340000Y-39617316D03*
X93340000Y-37892316D03*
%TD*%
D15*
%TO.C,C40*%
X26552951Y-41992213D03*
X24827951Y-41992213D03*
%TD*%
D16*
%TO.C,R14*%
X79680000Y-82885000D03*
X79680000Y-81060000D03*
%TD*%
D17*
%TO.C,R8*%
X95102500Y-21380000D03*
X93277500Y-21380000D03*
%TD*%
D18*
%TO.C,P1*%
X23480000Y-58910000D03*
X23480000Y-52510000D03*
X23480000Y-58110000D03*
X23480000Y-53310000D03*
D19*
X23480000Y-56960000D03*
X23480000Y-55960000D03*
X23480000Y-54960000D03*
X23480000Y-56460000D03*
X23480000Y-55460000D03*
X23480000Y-54460000D03*
X23480000Y-53960000D03*
X23480000Y-57460000D03*
%TD*%
D17*
%TO.C,R5*%
X65796077Y-43570000D03*
X63971077Y-43570000D03*
%TD*%
D16*
%TO.C,R17*%
X70920000Y-82882500D03*
X70920000Y-81057500D03*
%TD*%
%TO.C,R27*%
X56270000Y-27012500D03*
X56270000Y-25187500D03*
%TD*%
D14*
%TO.C,C26*%
X78220000Y-82832500D03*
X78220000Y-81107500D03*
%TD*%
%TO.C,C23*%
X91869913Y-39617316D03*
X91869913Y-37892316D03*
%TD*%
D20*
%TO.C,C36*%
X85785000Y-81107500D03*
X85785000Y-82832500D03*
%TD*%
%TO.C,C32*%
X60700000Y-81107500D03*
X60700000Y-82832500D03*
%TD*%
D21*
%TO.C,C8*%
X31765980Y-59980000D03*
X33490980Y-59980000D03*
%TD*%
D20*
%TO.C,C34*%
X66540000Y-81107500D03*
X66540000Y-82832500D03*
%TD*%
D16*
%TO.C,R24*%
X69650000Y-27012500D03*
X69650000Y-25187500D03*
%TD*%
D15*
%TO.C,C38*%
X26552951Y-39059885D03*
X24827951Y-39059885D03*
%TD*%
D22*
%TO.C,R10*%
X26147500Y-53960000D03*
X27972500Y-53960000D03*
%TD*%
D16*
%TO.C,R22*%
X56320000Y-82882500D03*
X56320000Y-81057500D03*
%TD*%
%TO.C,R15*%
X76760000Y-82882500D03*
X76760000Y-81057500D03*
%TD*%
D14*
%TO.C,C11*%
X51125170Y-73155000D03*
X51125170Y-71430000D03*
%TD*%
D15*
%TO.C,C39*%
X26552951Y-40525758D03*
X24827951Y-40525758D03*
%TD*%
D14*
%TO.C,C29*%
X69460000Y-82832500D03*
X69460000Y-81107500D03*
%TD*%
D15*
%TO.C,C5*%
X56549729Y-54996628D03*
X54824729Y-54996628D03*
%TD*%
%TO.C,C6*%
X56561390Y-65974041D03*
X54836390Y-65974041D03*
%TD*%
D23*
%TO.C,U5*%
X29772765Y-44104885D03*
X29772765Y-45374885D03*
X29772765Y-46644885D03*
X29772765Y-47914885D03*
X24822765Y-47914885D03*
X24822765Y-46644885D03*
X24822765Y-45374885D03*
X24822765Y-44104885D03*
%TD*%
D20*
%TO.C,C10*%
X50156490Y-47536065D03*
X50156490Y-49261065D03*
%TD*%
D16*
%TO.C,R23*%
X47350000Y-26922500D03*
X47350000Y-25097500D03*
%TD*%
D20*
%TO.C,C17*%
X38765934Y-35411567D03*
X38765934Y-37136567D03*
%TD*%
D14*
%TO.C,C35*%
X88705000Y-82832500D03*
X88705000Y-81107500D03*
%TD*%
D16*
%TO.C,R19*%
X65080000Y-82882500D03*
X65080000Y-81057500D03*
%TD*%
D21*
%TO.C,C15*%
X64021077Y-64000000D03*
X65746077Y-64000000D03*
%TD*%
D22*
%TO.C,R9*%
X26147500Y-58190000D03*
X27972500Y-58190000D03*
%TD*%
D17*
%TO.C,R32*%
X34142500Y-47920000D03*
X32317500Y-47920000D03*
%TD*%
D14*
%TO.C,C28*%
X72380000Y-82832500D03*
X72380000Y-81107500D03*
%TD*%
D24*
%TO.C,U4*%
X93180000Y-35460000D03*
X92530000Y-35460000D03*
X91870000Y-35460000D03*
X91220000Y-35460000D03*
X91220000Y-32760000D03*
X91870000Y-32760000D03*
X92530000Y-32760000D03*
X93180000Y-32760000D03*
%TD*%
D20*
%TO.C,C18*%
X37300000Y-35411567D03*
X37300000Y-37136567D03*
%TD*%
D16*
%TO.C,R29*%
X65190000Y-27012500D03*
X65190000Y-25187500D03*
%TD*%
%TO.C,R25*%
X74110000Y-27012500D03*
X74110000Y-25187500D03*
%TD*%
D21*
%TO.C,C9*%
X31765980Y-51770000D03*
X33490980Y-51770000D03*
%TD*%
D14*
%TO.C,C7*%
X38660000Y-72742500D03*
X38660000Y-71017500D03*
%TD*%
D25*
%TO.C,C20*%
X54922937Y-31195811D03*
X54922937Y-36795811D03*
%TD*%
D20*
%TO.C,C30*%
X54860000Y-81107500D03*
X54860000Y-82832500D03*
%TD*%
D14*
%TO.C,C12*%
X49670000Y-73155000D03*
X49670000Y-71430000D03*
%TD*%
D17*
%TO.C,R6*%
X65796077Y-45030000D03*
X63971077Y-45030000D03*
%TD*%
D16*
%TO.C,R21*%
X59240000Y-82882500D03*
X59240000Y-81057500D03*
%TD*%
%TO.C,R31*%
X87245000Y-82882500D03*
X87245000Y-81057500D03*
%TD*%
D20*
%TO.C,C3*%
X24210000Y-63737500D03*
X24210000Y-65462500D03*
%TD*%
D17*
%TO.C,R3*%
X65796077Y-47950000D03*
X63971077Y-47950000D03*
%TD*%
D26*
%TO.C,C19*%
X32437684Y-36802580D03*
X32437684Y-31202580D03*
%TD*%
D14*
%TO.C,C25*%
X81140000Y-82832500D03*
X81140000Y-81107500D03*
%TD*%
D27*
%TO.C,R2*%
X48205170Y-71380000D03*
X48205170Y-73205000D03*
%TD*%
D21*
%TO.C,C14*%
X64021077Y-62541528D03*
X65746077Y-62541528D03*
%TD*%
D16*
%TO.C,R16*%
X73840000Y-82882500D03*
X73840000Y-81057500D03*
%TD*%
D22*
%TO.C,R12*%
X31715980Y-54983070D03*
X33540980Y-54983070D03*
%TD*%
D16*
%TO.C,R26*%
X51810000Y-27012500D03*
X51810000Y-25187500D03*
%TD*%
D14*
%TO.C,C4*%
X46745170Y-73155000D03*
X46745170Y-71430000D03*
%TD*%
%TO.C,C27*%
X75300000Y-82832500D03*
X75300000Y-81107500D03*
%TD*%
%TO.C,C37*%
X22281217Y-47095479D03*
X22281217Y-45370479D03*
%TD*%
D17*
%TO.C,R4*%
X65796077Y-42110000D03*
X63971077Y-42110000D03*
%TD*%
D20*
%TO.C,C33*%
X63620000Y-81107500D03*
X63620000Y-82832500D03*
%TD*%
D15*
%TO.C,C2*%
X56561390Y-63382102D03*
X54836390Y-63382102D03*
%TD*%
D16*
%TO.C,R28*%
X60730000Y-27012500D03*
X60730000Y-25187500D03*
%TD*%
D21*
%TO.C,C16*%
X64021077Y-65460000D03*
X65746077Y-65460000D03*
%TD*%
D28*
%TO.C,C13*%
X63390000Y-70390000D03*
X57790000Y-70390000D03*
%TD*%
D14*
%TO.C,C22*%
X48592582Y-32552500D03*
X48592582Y-30827500D03*
%TD*%
D22*
%TO.C,R33*%
X32317500Y-45379885D03*
X34142500Y-45379885D03*
%TD*%
D16*
%TO.C,R1*%
X47658642Y-45427839D03*
X47658642Y-43602839D03*
%TD*%
D29*
%TO.C,U3*%
X45980000Y-37130000D03*
X43680000Y-37130000D03*
D30*
X43680000Y-30830000D03*
D29*
X41380000Y-37130000D03*
%TD*%
D31*
%TO.C,SW1*%
X22140000Y-63805000D03*
X18040000Y-63805000D03*
X22140000Y-65405000D03*
X18040000Y-65405000D03*
%TD*%
D21*
%TO.C,C1*%
X54824729Y-57064481D03*
X56549729Y-57064481D03*
%TD*%
D32*
%TO.C,D8*%
X92880000Y-29867500D03*
X91580000Y-29867500D03*
X92230000Y-28092500D03*
%TD*%
D16*
%TO.C,R30*%
X90165000Y-82882500D03*
X90165000Y-81057500D03*
%TD*%
D17*
%TO.C,R7*%
X65796077Y-46490000D03*
X63971077Y-46490000D03*
%TD*%
D20*
%TO.C,C31*%
X57780000Y-81107500D03*
X57780000Y-82832500D03*
%TD*%
D33*
%TO.C,Y1*%
X54844244Y-61324241D03*
X54844244Y-59124241D03*
X56544244Y-59124241D03*
X56544244Y-61324241D03*
%TD*%
D16*
%TO.C,R18*%
X68000000Y-82882500D03*
X68000000Y-81057500D03*
%TD*%
%TO.C,R20*%
X62160000Y-82882500D03*
X62160000Y-81057500D03*
%TD*%
D14*
%TO.C,C21*%
X50055914Y-32552500D03*
X50055914Y-30827500D03*
%TD*%
D16*
%TO.C,R13*%
X82600000Y-82882500D03*
X82600000Y-81057500D03*
%TD*%
D22*
%TO.C,R11*%
X31715980Y-56443070D03*
X33540980Y-56443070D03*
%TD*%
M02*
